<svg width="34" height="20" viewBox="0 0 34 20" fill="none" xmlns="http://www.w3.org/2000/svg">
<path d="M32.8357 0.47619H33.3211V0H32.8357V0.47619ZM32.8357 19.5238V20H33.3211V19.5238H32.8357ZM5.33975 0.952381H32.8357V0H5.33975V0.952381ZM32.3502 0.47619V19.5238H33.3211V0.47619H32.3502ZM32.8357 19.0476H5.33975V20H32.8357V19.0476ZM0.970864 14.7619V5.2381H0V14.7619H0.970864ZM5.33975 19.0476C2.92688 19.0476 0.970864 17.1289 0.970864 14.7619H0C0 17.6549 2.39069 20 5.33975 20V19.0476ZM5.33975 0C2.39068 0 0 2.34517 0 5.2381H0.970864C0.970864 2.87116 2.92688 0.952381 5.33975 0.952381V0Z" fill="#EBF0FF"/>
<path d="M12.4284 9.5238C11.8922 9.5238 11.4575 9.9502 11.4575 10.4762C11.4575 11.0022 11.8922 11.4286 12.4284 11.4286V9.5238ZM21.8639 11.4286C22.4 11.4286 22.8348 11.0022 22.8348 10.4762C22.8348 9.9502 22.4 9.5238 21.8639 9.5238V11.4286ZM12.4284 11.4286H21.8639V9.5238H12.4284V11.4286Z" fill="#9098B1"/>
</svg>
