<svg width="24" height="24" viewBox="0 0 24 24" fill="none" xmlns="http://www.w3.org/2000/svg">
<path d="M3.36005 9.255C2.96241 9.55324 2.88182 10.1174 3.18005 10.515C3.47828 10.9126 4.0424 10.9932 4.44004 10.695L3.36005 9.255ZM12 3.9L12.54 3.18C12.22 2.94 11.78 2.94 11.46 3.18L12 3.9ZM19.56 10.695C19.9576 10.9932 20.5217 10.9126 20.8199 10.515C21.1182 10.1174 21.0376 9.55324 20.6399 9.255L19.56 10.695ZM4.44004 10.695L12.54 4.62L11.46 3.18L3.36005 9.255L4.44004 10.695ZM11.46 4.62L19.56 10.695L20.6399 9.255L12.54 3.18L11.46 4.62Z" fill="#9098B1"/>
<path d="M20.9999 9.97501C20.9999 9.47796 20.597 9.07501 20.0999 9.07501C19.6028 9.07501 19.1999 9.47796 19.1999 9.97501H20.9999ZM20.0999 20.1V21C20.597 21 20.9999 20.5971 20.9999 20.1H20.0999ZM3.89999 20.1H3C3 20.5971 3.40294 21 3.89999 21V20.1ZM4.79999 9.97501C4.79999 9.47796 4.39705 9.07501 3.89999 9.07501C3.40294 9.07501 3 9.47796 3 9.97501H4.79999ZM19.1999 9.97501V20.1H20.9999V9.97501H19.1999ZM20.0999 19.2H3.89999V21H20.0999V19.2ZM4.79999 20.1V9.97501H3V20.1H4.79999Z" fill="#9098B1"/>
<path d="M9.97495 14.025V13.125C9.47789 13.125 9.07495 13.5279 9.07495 14.025H9.97495ZM14.0249 14.025H14.9249C14.9249 13.5279 14.522 13.125 14.0249 13.125V14.025ZM14.0249 20.1V21C14.522 21 14.9249 20.5971 14.9249 20.1H14.0249ZM9.97495 20.1H9.07495C9.07495 20.5971 9.47789 21 9.97495 21V20.1ZM9.97495 14.925H14.0249V13.125H9.97495V14.925ZM13.1249 14.025V20.1H14.9249V14.025H13.1249ZM14.0249 19.2H9.97495V21H14.0249V19.2ZM10.8749 20.1V14.025H9.07495V20.1H10.8749Z" fill="#9098B1"/>
</svg>
