<svg width="34" height="20" viewBox="0 0 34 20" fill="none" xmlns="http://www.w3.org/2000/svg">
<path d="M0.485432 0.47619V0H0V0.47619H0.485432ZM0.485432 19.5238H0V20H0.485432V19.5238ZM0.485432 0.952381H27.9814V0H0.485432V0.952381ZM32.3502 5.2381V14.7619H33.3211V5.2381H32.3502ZM27.9814 19.0476H0.485432V20H27.9814V19.0476ZM0.970864 19.5238V0.47619H0V19.5238H0.970864ZM32.3502 14.7619C32.3502 17.1289 30.3942 19.0476 27.9814 19.0476V20C30.9305 20 33.3211 17.6549 33.3211 14.7619H32.3502ZM27.9814 0.952381C30.3942 0.952381 32.3502 2.87116 32.3502 5.2381H33.3211C33.3211 2.34517 30.9305 0 27.9814 0V0.952381Z" fill="#EBF0FF"/>
<path d="M16.9804 6.57765C16.9804 6.15925 16.62 5.82007 16.1753 5.82007C15.7306 5.82007 15.3701 6.15925 15.3701 6.57765H16.9804ZM15.3701 12.4699C15.3701 12.8883 15.7306 13.2275 16.1753 13.2275C16.62 13.2275 16.9804 12.8883 16.9804 12.4699H15.3701ZM15.3701 6.57765V12.4699H16.9804V6.57765H15.3701Z" fill="#9098B1"/>
<path d="M12.2627 8.76627C11.818 8.76627 11.4575 9.10545 11.4575 9.52385C11.4575 9.94225 11.818 10.2814 12.2627 10.2814V8.76627ZM20.0878 10.2814C20.5324 10.2814 20.893 9.94225 20.893 9.52385C20.893 9.10545 20.5324 8.76627 20.0878 8.76627V10.2814ZM12.2627 10.2814H20.0878V8.76627H12.2627V10.2814Z" fill="#9098B1"/>
</svg>
